<svg width="173" height="62" viewBox="0 0 173 62" fill="none" xmlns="http://www.w3.org/2000/svg">
<path d="M33.4984 37.9321H32.0205V53.077H33.4984V37.9321Z" fill="#004964"/>
<path d="M32.7941 34.2161C33.5683 34.2161 34.1313 33.6552 34.1313 32.8839C34.1313 32.1828 33.5683 31.5518 32.7941 31.5518C32.02 31.5518 31.457 32.1828 31.457 32.8839C31.457 33.5851 32.02 34.2161 32.7941 34.2161Z" fill="#004964"/>
<path d="M40.6761 45.5747C40.6761 42.4896 41.3095 38.9838 45.1097 38.9838C48.4173 38.9838 48.7692 41.2275 48.7692 43.8919V53.0069H50.247V43.8919C50.247 39.9655 49.1914 37.5815 45.2505 37.5815C43.28 37.5815 41.6614 38.5632 40.7465 40.2459H40.6761V37.862H39.1982V53.0069H40.6761V45.5747Z" fill="#004964"/>
<path d="M56.722 45.5747C56.722 42.4896 57.3554 38.9838 61.1556 38.9838C64.4632 38.9838 64.8151 41.2275 64.8151 43.8919V53.0069H66.2929V43.8919C66.2929 39.9655 65.2373 37.5815 61.2964 37.5815C59.3259 37.5815 57.7072 38.5632 56.7924 40.2459H56.722V37.862H55.2441V53.0069H56.722V45.5747Z" fill="#004964"/>
<path d="M77.7638 53.3576C82.1974 53.3576 85.7161 49.922 85.7161 45.5048C85.7161 41.0174 82.1974 37.6519 77.7638 37.6519C73.3302 37.6519 69.8818 41.2277 69.8818 45.5749C69.8818 49.7818 73.4006 53.3576 77.7638 53.3576ZM77.623 38.9139C81.3529 38.9139 84.2382 41.7185 84.2382 45.4346C84.2382 49.0806 81.3529 51.8852 77.623 51.8852C74.0339 51.8852 71.2893 48.8703 71.2893 45.4346C71.3597 41.999 74.0339 38.9139 77.623 38.9139Z" fill="#004964"/>
<path d="M92.8943 51.9552C90.9238 51.9552 89.6571 50.6931 89.0941 48.8701L87.6162 49.3609C88.2496 51.8149 90.2904 53.3575 92.8239 53.3575C95.5685 53.3575 97.7502 51.3942 97.7502 48.6597C97.7502 43.1908 90.3608 44.9436 90.3608 41.3678C90.3608 40.0356 91.6979 38.9838 92.9647 38.9838C94.1611 38.9838 95.1463 39.6149 95.6389 40.6666L96.9057 40.0356C96.2723 38.6333 94.5833 37.5815 93.0351 37.5815C90.8534 37.5815 88.883 39.1241 88.883 41.4379C88.883 43.962 91.2757 44.8735 93.3166 45.6448C94.7944 46.1356 96.2723 46.7666 96.2723 48.5896C96.3427 50.4827 94.7944 51.9552 92.8943 51.9552Z" fill="#004964"/>
<path d="M107.884 53.3576C109.925 53.3576 111.825 52.5864 113.373 51.2542V49.291C111.966 50.9737 109.925 52.0255 107.813 52.0255C104.224 52.0255 101.55 48.9404 101.55 45.5048C101.55 42.0691 104.224 39.0542 107.813 39.0542C109.995 39.0542 111.754 39.9657 113.162 41.5082V39.545C111.684 38.2829 109.854 37.6519 107.884 37.6519C103.45 37.6519 100.072 41.0875 100.072 45.5048C100.143 49.8519 103.38 53.3576 107.884 53.3576Z" fill="#004964"/>
<path d="M118.722 45.2945C118.722 43.0508 118.511 38.914 121.819 38.914C122.241 38.914 122.522 38.9841 122.874 39.1945L123.648 37.8623C123.156 37.6519 122.663 37.5117 122.03 37.5117C120.411 37.5117 119.355 38.4232 118.722 39.8255H118.652V37.8623H117.174V53.0072H118.652V45.2945H118.722Z" fill="#004964"/>
<path d="M128.434 37.9321H126.956V53.077H128.434V37.9321Z" fill="#004964"/>
<path d="M127.73 34.2161C128.504 34.2161 129.067 33.6552 129.067 32.8839C129.067 32.1828 128.504 31.5518 127.73 31.5518C126.956 31.5518 126.393 32.1828 126.393 32.8839C126.393 33.5851 126.956 34.2161 127.73 34.2161Z" fill="#004964"/>
<path d="M148.912 45.5747C148.912 41.1574 146.027 37.5815 141.453 37.5815C139.201 37.5815 136.808 38.7034 135.682 40.5965H135.612V37.862H134.134V61.7713H135.612V50.4126H135.682C136.949 52.3758 139.201 53.3575 141.523 53.3575C146.027 53.3575 148.912 49.9919 148.912 45.5747ZM135.471 45.785C135.471 42.139 137.582 38.9137 141.453 38.9137C145.183 38.9137 147.435 42.139 147.435 45.5747C147.435 48.9402 145.042 51.9551 141.523 51.9551C137.864 51.9551 135.471 49.2908 135.471 45.785Z" fill="#004964"/>
<path d="M152.642 53.0073H154.12V39.2647H156.724V37.9326H154.12V32.5337H152.642V37.9326H150.953V39.2647H152.642V53.0073Z" fill="#004964"/>
<path d="M165.31 53.3575C167.562 53.3575 169.955 52.2356 171.081 50.3425H171.151V53.077H172.629V37.9321H171.151V40.5264H171.081C169.814 38.6333 167.562 37.5815 165.24 37.5815C160.666 37.5815 157.851 40.9471 157.851 45.3643C157.851 49.7816 160.736 53.3575 165.31 53.3575ZM165.17 38.9137C168.829 38.9137 171.222 41.6482 171.222 45.154C171.222 48.8 169.111 51.9552 165.24 51.9552C161.58 51.9552 159.258 48.8 159.258 45.3643C159.328 42.0689 161.721 38.9137 165.17 38.9137Z" fill="#004964"/>
<path d="M172.769 58.1958H137.723V59.3878H172.769V58.1958Z" fill="#004964"/>
<path d="M19.4234 52.2358L18.4381 51.6048L16.8899 53.9887H12.8082L10.2747 49.8519H21.8865V45.645H8.3042V43.822H23.4347V39.4748H6.82633V37.6518H24.0681L24.1385 37.161C24.7015 34.076 27.0238 26.153 27.8683 23.3484L28.0091 22.8575C28.6425 20.8242 29.8388 16.9679 29.8388 15.0748C29.8388 7.64255 24.2089 0 14.7787 0C5.48922 0 0 7.64255 0 15.0748C0 16.9679 1.12599 20.7541 1.75936 22.8575L1.90011 23.3484C1.97049 23.6288 2.11124 24.0495 2.32236 24.6104C2.95573 26.5035 3.94098 29.7288 4.7151 32.6737L5.84109 32.3932C5.06697 29.4484 4.08173 26.2231 3.44835 24.2598C3.23723 23.6989 3.16686 23.2782 3.02611 22.9978L2.95573 22.4369C2.39274 20.6139 1.19637 16.7575 1.19637 15.0046C1.19637 8.27359 6.26334 1.19196 14.7787 1.19196H14.849C23.5051 1.19196 28.7128 8.27359 28.7128 15.0748C28.7128 16.7575 27.5165 20.6139 26.9535 22.507L26.7423 22.9277C26.7423 22.9978 23.857 32.3231 23.0829 36.3898H5.62997V40.5967H22.2384V42.5599H7.10783V46.7668H20.7605V48.5898H8.16345L14.849 59.4577L14.9194 59.3174H131.952V58.1956H15.6935L19.4234 52.2358Z" fill="#004964"/>
</svg>
