<?xml version="1.0" standalone="no"?>
<!DOCTYPE svg PUBLIC "-//W3C//DTD SVG 20010904//EN"
 "http://www.w3.org/TR/2001/REC-SVG-20010904/DTD/svg10.dtd">
<svg version="1.0" xmlns="http://www.w3.org/2000/svg"
 width="347.000000pt" height="55.000000pt" viewBox="0 0 347.000000 55.000000"
 preserveAspectRatio="xMidYMid meet">

<g transform="translate(0.000000,55.000000) scale(0.100000,-0.100000)"
fill="#ffffff" stroke="none">
<path d="M164 500 c-82 -19 -142 -105 -130 -183 14 -83 71 -136 148 -138 30 0
28 -3 -40 -35 -69 -34 -100 -63 -87 -84 12 -19 33 -10 44 20 5 17 15 30 21 30
6 0 36 -13 67 -30 70 -37 111 -38 152 -4 35 30 42 53 9 30 -30 -21 -36 -20
-103 10 l-57 26 58 32 c83 46 117 92 122 164 3 47 0 63 -20 91 -39 59 -115 88
-184 71z m78 -21 c29 -16 48 -70 48 -138 0 -69 -10 -101 -41 -130 -76 -71
-160 48 -130 184 18 79 68 114 123 84z"/>
<path d="M856 408 c-65 -171 -78 -198 -100 -213 -19 -14 -16 -15 39 -14 51 0
56 2 38 11 -25 12 -29 40 -13 82 8 23 15 26 60 26 49 0 52 -2 66 -35 19 -48
18 -64 -8 -75 -17 -6 1 -9 62 -9 67 0 80 3 63 11 -14 7 -34 38 -54 87 -70 170
-95 225 -104 228 -6 2 -28 -43 -49 -99z m37 -15 c8 -16 18 -38 21 -50 7 -21 4
-23 -34 -23 -30 0 -41 4 -37 13 2 6 10 29 18 50 7 20 14 37 16 37 1 0 9 -12
16 -27z"/>
<path d="M416 490 c26 -10 34 -46 34 -160 0 -49 3 -96 6 -105 18 -46 151 -62
211 -25 36 21 39 33 47 175 4 76 9 93 27 108 21 17 20 17 -37 17 -56 0 -57 -1
-36 -16 20 -14 22 -23 22 -115 0 -95 -9 -135 -34 -151 -21 -15 -93 -8 -116 10
-26 21 -37 106 -25 197 5 45 11 58 28 65 15 6 -5 9 -63 9 -57 0 -78 -3 -64 -9z"/>
<path d="M1109 486 c41 -22 50 -53 51 -162 0 -105 -8 -128 -45 -137 -11 -3 14
-5 55 -5 62 0 70 1 47 10 -33 12 -39 32 -35 132 l3 79 98 -112 c55 -61 103
-111 108 -111 5 0 9 62 9 138 0 75 4 142 8 148 4 6 16 16 27 22 16 9 9 11 -45
11 -63 0 -64 0 -37 -15 26 -14 27 -17 27 -105 l0 -90 -58 63 c-32 35 -76 82
-96 106 -36 39 -42 42 -90 42 -48 -1 -49 -2 -27 -14z"/>
<path d="M1480 458 l0 -42 28 31 c17 20 40 33 63 37 32 6 37 4 43 -16 8 -33 7
-241 -2 -255 -4 -7 -19 -16 -32 -22 -19 -7 0 -10 75 -9 55 0 91 3 80 5 -11 3
-25 9 -31 14 -13 10 -24 178 -16 245 l5 44 36 -6 c22 -3 47 -18 64 -36 34 -36
42 -31 33 17 l-7 35 -169 0 -170 0 0 -42z"/>
<path d="M1866 490 c26 -10 34 -46 34 -160 0 -49 3 -96 6 -105 18 -46 151 -62
211 -25 36 21 39 33 47 175 4 76 9 93 27 108 21 17 20 17 -37 17 -56 0 -57 -1
-36 -16 20 -14 22 -23 22 -115 0 -95 -9 -135 -34 -151 -21 -15 -93 -8 -116 10
-26 21 -37 106 -25 197 5 45 11 58 28 65 15 6 -5 9 -63 9 -57 0 -78 -3 -64 -9z"/>
<path d="M2253 484 l28 -15 -3 -132 c-3 -129 -3 -132 -28 -144 -23 -11 -19
-13 40 -12 48 0 59 3 43 9 -29 12 -34 36 -31 150 l3 95 62 -115 c34 -63 65
-121 70 -128 5 -9 25 30 58 113 27 70 53 129 57 131 5 3 8 -45 8 -105 0 -98
-2 -113 -20 -131 l-20 -20 83 0 c72 0 79 2 57 13 -30 15 -38 42 -38 127 -1
108 9 153 38 167 23 12 19 13 -40 13 l-65 0 -43 -105 c-24 -58 -47 -105 -51
-105 -5 0 -32 47 -62 105 l-54 105 -60 -1 c-59 0 -60 0 -32 -15z"/>
<path d="M2935 436 c-39 -17 -85 -71 -85 -100 0 -48 54 -62 90 -24 28 30 25
47 -3 20 -31 -30 -37 -28 -37 12 0 42 34 88 64 84 16 -2 22 -11 24 -40 4 -50
-20 -93 -87 -155 l-56 -53 91 0 90 0 17 35 c23 48 21 63 -3 37 -16 -17 -32
-22 -67 -22 -26 0 -43 4 -37 8 5 5 29 24 53 42 73 57 85 131 25 159 -31 14
-41 14 -79 -3z"/>
<path d="M3292 435 c-22 -10 -39 -28 -52 -57 -24 -53 -25 -76 -4 -127 20 -50
51 -71 105 -71 33 0 47 6 74 33 102 102 4 279 -123 222z m89 -37 c19 -46 17
-150 -4 -182 -10 -14 -26 -26 -37 -26 -34 0 -50 38 -50 120 0 85 16 120 54
120 17 0 27 -9 37 -32z"/>
<path d="M3124 226 c-10 -26 4 -48 28 -44 17 2 23 10 23 28 0 18 -6 26 -23 28
-13 2 -25 -3 -28 -12z"/>
</g>
</svg>
